<svg xmlns="http://www.w3.org/2000/svg" xml:space="preserve" baseProfile="tiny" overflow="visible" version="1.2" viewBox="0 0 50 50"><path fill="#FFD11A" d="M33.3 50v-8.3c4.6 0 8.3-3.7 8.3-8.3H50C50 42.6 42.5 50 33.3 50zM33.3 33.3V25c-4.6 0-8.3-3.7-8.3-8.3h-8.3c0 9.2 7.4 16.6 16.6 16.6zM0 33.3h8.3c0 4.6 3.7 8.3 8.3 8.3v8.3C7.5 50 0 42.6 0 33.3zM16.7 16.7H25c0-4.6 3.7-8.3 8.3-8.3V0c-9.2 0-16.6 7.5-16.6 16.7zM16.7 0v8.3c-4.6 0-8.3 3.7-8.3 8.3H0C0 7.5 7.5 0 16.7 0zM50 16.7h-8.3c0-4.6-3.7-8.3-8.3-8.3V0C42.5 0 50 7.5 50 16.7z"/><path fill="#FFD11A" d="M50 16.7h-8.3c0 4.6-3.7 8.3-8.3 8.3v8.3c9.1 0 16.6-7.4 16.6-16.6z"/></svg>