<?xml version="1.0" encoding="utf-8"?>
<!-- Generator: Adobe Illustrator 28.4.1, SVG Export Plug-In . SVG Version: 6.00 Build 0)  -->
<svg version="1.2" baseProfile="tiny" id="Слой_1"
	 xmlns="http://www.w3.org/2000/svg" xmlns:xlink="http://www.w3.org/1999/xlink" x="0px" y="0px" viewBox="0 0 50 51"
	 overflow="visible" xml:space="preserve">
<path fill="#FFD11A" d="M33.3,50.5v-8.3c4.6,0,8.3-3.7,8.3-8.3H50C50,43.1,42.5,50.5,33.3,50.5z"/>
<path fill="#FFD11A" d="M16.7,50.5v-8.3c4.6,0,8.3-3.7,8.3-8.3h8.3C33.3,43.1,25.9,50.5,16.7,50.5z"/>
<path fill="#FFD11A" d="M33.3,33.8v-8.3c-4.6,0-8.3-3.7-8.3-8.3h-8.3C16.7,26.4,24.1,33.8,33.3,33.8z"/>
<path fill="#FFD11A" d="M0,33.8h8.3c0,4.6,3.7,8.3,8.3,8.3v8.3C7.5,50.5,0,43.1,0,33.8z"/>
<path fill="#FFD11A" d="M0,33.8h8.3c0-4.6,3.7-8.3,8.3-8.3v-8.3C7.5,17.2,0,24.6,0,33.8z"/>
<path fill="#FFD11A" d="M16.7,17.2H25c0-4.6,3.7-8.3,8.3-8.3V0.5C24.1,0.5,16.7,8,16.7,17.2z"/>
<path fill="#FFD11A" d="M16.7,0.5v8.3c-4.6,0-8.3,3.7-8.3,8.3H0C0,8,7.5,0.5,16.7,0.5z"/>
<path fill="#FFD11A" d="M50,17.2h-8.3c0-4.6-3.7-8.3-8.3-8.3V0.5C42.5,0.5,50,8,50,17.2z"/>
<path fill="#FFD11A" d="M33.3,33.8H25c0-4.6-3.7-8.3-8.3-8.3v-8.3C25.9,17.2,33.3,24.6,33.3,33.8z"/>
<path fill="#FFD11A" d="M50,17.2h-8.3c0,4.6-3.7,8.3-8.3,8.3v8.3C42.5,33.8,50,26.4,50,17.2z"/>
</svg>
